<svg xmlns="http://www.w3.org/2000/svg" xmlns:xlink="http://www.w3.org/1999/xlink" version="1.1" x="0px" y="0px" viewBox="0 0 349.028 372.2975" style="enable-background:new 0 0 349.028 297.838;" xml:space="preserve"><g><g><path d="M304.076,48.601c0.169,0.12,0.339,0.233,0.507,0.354c3.411,2.453,6.629,4.988,9.662,7.571    c22.139,18.859,33.763,40.43,28.736,53.77c0.783-0.763,1.51-1.582,2.158-2.474c9.908-13.651,0.24-38.09-21.693-58.358    c0.706-0.668,1.417-1.362,2.133-2.112c8.503-8.846,17.033-23.773,18.545-45.938L324.173,0    c-1.324,17.837-7.544,27.659-13.08,33.562c-1.275,1.34-2.523,2.454-3.688,3.385c-28.18-18.504-58.384-21.903-69.375-7.239    c3.325-1.536,7.403-2.333,12.132-2.333C265.313,27.375,285.428,35.305,304.076,48.601z"/><path d="M268.956,98.496c29.022,20.871,60.124,27.37,70.067,14.797c0.127-0.162,0.267-0.313,0.388-0.481    c8.495-11.813-3.449-35.282-27.021-55.222c-2.27-1.92-4.645-3.806-7.123-5.647c-0.615-0.457-1.228-0.915-1.854-1.366    c-26.855-19.314-55.494-26.322-67.501-17.299c-1.135,0.853-2.132,1.84-2.954,2.983C223.442,49.493,239.559,77.357,268.956,98.496z     M291.354,98.279c-2.621,3.645-11.311,1.879-19.406-3.943c-8.1-5.823-12.537-13.498-9.916-17.143    c2.621-3.645,11.309-1.879,19.406,3.943C289.536,86.959,293.975,94.634,291.354,98.279z M320.252,89.023    c8.098,5.822,12.537,13.498,9.916,17.143c-2.621,3.644-11.311,1.879-19.408-3.943c-8.098-5.822-12.535-13.498-9.914-17.143    C303.465,81.435,312.155,83.201,320.252,89.023z M281.014,50.794c2.621-3.644,11.311-1.879,19.408,3.943    c8.098,5.823,12.535,13.498,9.914,17.143c-2.619,3.645-11.309,1.88-19.406-3.943C282.833,62.115,278.393,54.439,281.014,50.794z     M242.202,42.907c2.619-3.644,11.309-1.879,19.406,3.944c8.098,5.822,12.535,13.498,9.916,17.143    c-2.621,3.645-11.311,1.879-19.408-3.943C244.018,54.227,239.581,46.552,242.202,42.907z"/></g><g><polygon points="158.495,242.114 154.657,242.114 153.043,256.946 158.495,256.946   "/><path d="M174.544,287.113h-24.082c1.148,4.986,5.33,8.934,10.702,9.518C167.464,297.316,173.164,293.142,174.544,287.113z"/><path d="M163.988,218.78c-1.29-1.585-2.3-3.357-3.022-5.315c-1.035-0.129-2.097-0.232-3.155-0.339l-0.615,5.655H163.988z"/><path d="M166.151,184.895c1.194-0.496,2.486-0.785,3.834-0.785c1.338,0,2.649,0.266,3.891,0.793    c1.786,0.755,3.548,1.436,5.294,2.075c1.982,0.421,4.061,0.761,6.248,1.018c1.664,0.196,3.395,0.344,5.194,0.447    c2.015,0.115,4.108,0.179,6.313,0.179c6.149-0.002,12.256-0.447,18.053-1.01c0.139-0.014,0.276-0.028,0.415-0.041l-0.355-3.258    v-5.03c-0.137,0.121-0.263,0.239-0.4,0.36c-0.032,0.028-0.066,0.052-0.099,0.079c-1.808,1.542-4.1,2.392-6.476,2.392    c-2.889,0-5.637-1.249-7.535-3.424c-1.757-2.011-2.624-4.585-2.443-7.252c0.179-2.667,1.389-5.102,3.399-6.856    c2.493-2.175,4.729-4.325,6.704-6.419c2.889-3.061,5.202-5.997,6.807-8.685c0.016-0.026,0.028-0.051,0.044-0.077v-17.609    c1.287,1.112,2.411,2.344,3.211,3.607c1.072,1.715,1.652,3.367,1.668,5.546c0,0.002,0,0.003,0,0.004    c-0.005,2.246-0.676,5.313-3.205,9.554c-0.485,0.814-1.043,1.667-1.674,2.557c-1.394,1.965-3.153,4.113-5.334,6.428    c-1.952,2.07-4.238,4.273-6.905,6.601c-3.329,2.905-3.671,7.961-0.764,11.287c1.581,1.812,3.799,2.738,6.028,2.739    c1.867,0,3.742-0.65,5.259-1.976c0.329-0.288,0.63-0.569,0.951-0.855c0.258-0.23,0.512-0.459,0.765-0.688    c6.975-6.311,11.989-12.192,15.398-17.869c3.674-6.113,5.487-12.122,5.481-17.773c0-0.002,0-0.003,0-0.005    c0.019-5.646-1.847-10.663-4.423-14.529c-3.893-5.83-9.089-9.409-13.227-11.752c-4.161-2.323-7.393-3.365-7.737-3.482    c-0.208-0.066-0.417-0.117-0.626-0.166c-0.812-0.29-1.683-0.456-2.595-0.456h-2.352c-4.428,4.255-10.418,6.801-16.947,6.801    c-1.865,0-3.74-0.217-5.574-0.643c-4.431-1.032-8.297-3.216-11.364-6.158h-2.397c-0.913,0-1.784,0.167-2.597,0.457    c-0.209,0.049-0.419,0.1-0.627,0.166c-0.463,0.167-6.048,1.924-12.143,6.273c-3.039,2.19-6.245,5.068-8.826,8.96    c-2.574,3.865-4.438,8.885-4.422,14.529c-0.004,5.65,1.806,11.663,5.481,17.778c3.409,5.677,8.426,11.56,15.404,17.871    c0.252,0.228,0.505,0.457,0.763,0.686c0.32,0.286,0.621,0.567,0.95,0.855c1.517,1.324,3.392,1.975,5.258,1.975    c1.96,0,3.909-0.717,5.427-2.121c0.209-0.193,0.41-0.398,0.602-0.618c0.979-1.12,1.58-2.437,1.832-3.801    c0.497-2.688-0.389-5.559-2.595-7.486c-2.667-2.326-4.954-4.529-6.905-6.599c-2.18-2.313-3.938-4.458-5.331-6.421    c-0.633-0.892-1.193-1.748-1.681-2.564c-2.524-4.231-3.197-7.295-3.203-9.54c0-0.004-0.001-0.01-0.001-0.015    c0.019-2.248,0.631-3.943,1.773-5.713c0.778-1.208,1.879-2.372,3.111-3.434v17.614c0.013,0.021,0.023,0.042,0.036,0.063    c1.609,2.69,3.925,5.626,6.811,8.685c1.977,2.094,4.214,4.244,6.705,6.417c3.008,2.627,4.05,6.671,3.024,10.28l8.632,6.369    l3.409,2.516c0.283,0.208,0.486,0.48,0.623,0.778c0.183,0.399,0.237,0.848,0.139,1.278c-0.06,0.26-0.17,0.513-0.338,0.741    l-0.594,0.805c-0.656,0.889-1.908,1.078-2.797,0.423l-1.067-0.788l-10.562-7.793c-1.867,1.858-4.394,2.923-7.049,2.923    c-2.377,0-4.669-0.851-6.475-2.39c-0.032-0.028-0.067-0.051-0.1-0.08c-0.137-0.12-0.262-0.237-0.397-0.357v4.996    c0.001,0,0.001,0.001,0.001,0.001C162.792,184.469,164.528,184.676,166.151,184.895z"/><polygon points="216.495,256.946 222.938,256.946 221.325,242.114 216.495,242.114   "/><path d="M214.819,296.631c5.371-0.585,9.552-4.533,10.7-9.518h-24.082C202.818,293.142,208.519,297.316,214.819,296.631z"/><ellipse transform="matrix(0.9903 -0.1387 0.1387 0.9903 -24.4354 40.5274)" cx="278.485" cy="195.538" rx="22.495" ry="22.496"/><path d="M90.807,217.217h-0.003c20.493-5.276,37.888-6.857,51.439-6.859c6.057,0,11.337,0.318,15.785,0.766    c1.585,0.159,3.07,0.334,4.439,0.518c0.757,2.559,2.071,4.995,4.201,7.138h15.401h11.842h24.875H244    c6.873-5.325,9.461-13.047,8.505-19.18c-1.355-8.693-12.885-13.497-23.055-11.529c-4.156,0.433-8.858,0.999-13.842,1.489    c-0.391,0.038-0.776,0.078-1.171,0.115c-7.535,0.714-15.678,1.211-23.606,0.784c-0.213-0.011-0.423-0.03-0.635-0.044    c0.218,0.056,0.431,0.105,0.648,0.159c7.298,1.829,13.965,2.747,19.649,3.146c1.987,0.14,3.864,0.223,5.595,0.254    c0.643,0.012,1.27,0.018,1.875,0.018c8.305,0,13.275-0.996,13.326-1.006c0.666-0.138,1.352-0.209,2.029-0.209    c4.707,0,8.82,3.345,9.785,7.955c1.125,5.395-2.346,10.705-7.74,11.836c-0.704,0.145-7.056,1.396-17.098,1.423    c-0.103,0-0.199,0.002-0.303,0.002c-6.567-0.001-15.103-0.555-24.838-2.44c-3.216-0.623-6.562-1.396-10.015-2.342    c-5.451-1.493-11.154-3.407-17.024-5.89c-5.078-2.149-7.461-8.029-5.314-13.104c0.163-0.388,0.362-0.751,0.568-1.109    c0.56-0.971,1.265-1.829,2.089-2.545c-0.802-0.095-1.634-0.186-2.483-0.273c-0.071-0.007-0.144-0.014-0.215-0.022    c-5.286-0.538-11.467-0.912-18.488-0.912c-15.501-0.002-35.035,1.819-57.671,7.648c-6.686,1.722-10.71,8.537-8.988,15.223    c1.453,5.641,6.53,9.386,12.097,9.386C88.712,217.615,89.761,217.487,90.807,217.217z"/><path d="M185.084,191.061c-2.132-0.642-4.303-1.363-6.508-2.169c-1.808-0.661-3.631-1.365-5.479-2.147    c-2.235-0.946-4.657-0.792-6.673,0.208c-1.654,0.821-3.036,2.21-3.812,4.044c-0.045,0.105-0.076,0.212-0.116,0.319    c-1.496,3.992,0.403,8.488,4.368,10.166c5.67,2.398,11.181,4.261,16.463,5.724c3.289,0.911,6.487,1.666,9.572,2.279    c9.671,1.921,18.245,2.51,25.065,2.511c0.028,0,0.055,0,0.083,0c10.173-0.009,16.477-1.295,16.903-1.384    c4.326-0.906,7.098-5.145,6.195-9.469c-0.906-4.321-5.137-7.09-9.457-6.195v-0.001c-0.258,0.053-5.414,1.05-13.725,1.048    c-0.537,0-1.097-0.007-1.659-0.016c-4.801-0.075-10.521-0.496-16.885-1.564c-2.676-0.449-5.464-1.016-8.347-1.72    C189.118,192.215,187.121,191.674,185.084,191.061z"/><path d="M201.126,285.112h24.683h21.475c-0.004-0.14-0.021-0.275-0.021-0.416c0-8.349,6.795-15.143,15.144-15.143    c8.348,0,15.141,6.794,15.141,15.143c0,0.141-0.018,0.276-0.022,0.416h11.719c2.762,0,5-2.238,5-5v-16.166c0-2.762-2.238-5-5-5    h-66.09h-8.66v-18.834h6.612h100.284c2.762,0,5-2.238,5-5v-9.333c0-2.761-2.238-5-5-5h-76.77h-3.608h-22.009h-24.874h-12.277    h-12.835h-3.138h-8.901H53.596c-2.762,0-5,2.239-5,5v9.333c0,2.762,2.238,5,5,5h101.279h5.62v18.834h-7.668H85.744    c-2.762,0-5,2.238-5,5v16.166c0,2.762,2.238,5,5,5h11.718c-0.004-0.14-0.021-0.276-0.021-0.417c0-8.35,6.793-15.142,15.143-15.142    c8.35,0,15.143,6.792,15.143,15.142c0,0.141-0.017,0.277-0.021,0.417h22.467h24.683H201.126z"/><path d="M125.727,284.696c0-7.26-5.885-13.144-13.143-13.144c-7.258,0-13.143,5.884-13.143,13.144    c0,0.141,0.017,0.276,0.021,0.416c0.021,0.681,0.089,1.35,0.211,2.001c1.136,6.102,6.479,10.726,12.911,10.726    c6.431,0,11.775-4.624,12.911-10.726c0.122-0.651,0.189-1.32,0.211-2.001C125.71,284.972,125.727,284.836,125.727,284.696z"/><path d="M275.547,284.696c0-7.26-5.885-13.144-13.143-13.144c-7.258,0-13.143,5.884-13.143,13.144c0,0.141,0.017,0.276,0.02,0.416    c0.021,0.681,0.09,1.35,0.211,2.001c1.137,6.102,6.48,10.726,12.911,10.726c6.431,0,11.775-4.624,12.911-10.726    c0.121-0.651,0.189-1.32,0.211-2.001C275.531,284.972,275.547,284.836,275.547,284.696z"/><path d="M198.229,110.563c0.205,0.667,0.41,1.335,0.616,2.002c1.06-0.585,2.07-1.255,3.024-2.002    c2.617-2.05,4.792-4.686,6.306-7.77c-4.012,2.579-8.192,4.396-10.683,5.377C197.738,108.967,197.984,109.765,198.229,110.563z"/><path d="M179.079,106.258c0.104-0.336,0.207-0.673,0.311-1.009c0.273-0.856,1.197-1.326,2.076-1.113    c4.287,1.042,8.764,1.042,13.053,0c0.877-0.213,1.803,0.258,2.076,1.113c0.104,0.335,0.206,0.671,0.31,1.007    c1.475-0.588,3.521-1.465,5.756-2.612c2.244-1.146,4.658-2.57,6.84-4.206c0.147-0.483,0.285-0.972,0.401-1.472    c0.884-3.796,0.749-7.591-0.225-11.1c-3.305,1.108-15.818,5.165-21.683,5.165c-5.863,0-18.361-4.051-21.678-5.162    c-0.082,0.296-0.162,0.593-0.232,0.895c-0.933,4.005-0.727,8.007,0.397,11.674c2.182,1.637,4.597,3.061,6.843,4.208    C175.558,104.792,177.605,105.67,179.079,106.258z"/><path d="M177.753,110.563c0.245-0.797,0.49-1.595,0.736-2.393c-2.491-0.98-6.671-2.798-10.683-5.377    c1.482,3.009,3.63,5.674,6.298,7.77c0.947,0.744,1.96,1.414,3.031,2.003C177.342,111.899,177.547,111.231,177.753,110.563z"/><path d="M166.934,84.965c3.195,1.068,15.521,5.063,21.057,5.063c5.539,0,17.873-3.998,21.063-5.064    c0.489-0.163,0.771-0.26,0.771-0.26s-0.028-1.229-0.138-3.17c-0.375-6.655-1.717-21.755-6.253-25.053    c-5.857-4.26-15.443-4.26-15.443-4.26s-9.584,0-15.443,4.26c-4.519,3.287-5.866,18.288-6.247,24.979    c-0.113,1.983-0.142,3.245-0.142,3.245S166.441,84.801,166.934,84.965z"/></g><g><path d="M75.066,164.589h46.082v-6H76.023C76.341,160.686,75.981,162.775,75.066,164.589z"/><path d="M27.41,99.385c2.762,5.324,7.628,9.54,13.854,11.297c5.606,1.582,11.315,0.894,16.146-1.516L27.41,99.385z"/><path d="M44.774,86.033c-2.223,0.993-4.357,1.944-6.378,2.805l28.924,10.6c0.7-1.344,1.275-2.779,1.702-4.295    c1.672-5.927,0.803-11.968-1.952-16.967c-0.116,0.019-0.228,0.045-0.349,0.055C61.229,78.692,52.488,82.593,44.774,86.033z"/><path d="M51.412,104.171l3.386-7.318l-19.241-6.839c-4.038,1.614-7.473,2.691-9.966,2.691c-0.148,0-0.274-0.027-0.416-0.035    c0.243,1.479,0.631,2.922,1.156,4.31l24.762,7.904C51.118,104.8,51.375,104.252,51.412,104.171z"/><path d="M14.017,202.794c2.134,5.937,5.122,17.343,5.134,34.826c-0.002,12.016-1.426,26.914-5.599,44.888    c-1.56,6.724,2.625,13.442,9.351,15.004c0.95,0.22,1.901,0.326,2.836,0.326c5.684,0,10.826-3.901,12.167-9.677h-0.002    c4.581-19.719,6.247-36.544,6.247-50.541c0.016-23.801-4.843-39.36-8.072-47.048c0.001-0.323,0.001-0.647-0.003-0.986    c-0.617-7.069-0.003-14.562,1.157-21.9c-1.354-0.787-2.647-1.666-3.857-2.646c-4.529-3.629-8.099-8.338-10.906-14.388    c-3.611-7.892-4.701-15.248-5.03-18.93l-0.016-0.169l-0.004-0.041l-0.004-0.061c-0.18-2.664,0.69-5.24,2.447-7.253    c1.758-2.013,4.195-3.219,6.858-3.398c0.229-0.014,0.456-0.022,0.682-0.022c5.235,0,9.614,4.097,9.969,9.326    c0.006,0.088,0.017,0.2,0.035,0.353c0.041,0.382,0.108,0.937,0.223,1.645c0.209,1.322,0.602,3.376,1.304,5.685    c0.802,2.706,1.914,5.186,3.199,7.259c0.565-2.245,1.111-4.402,1.604-6.421c3.327-9.81,0.129-21.883-8.298-24.405    c-8.431-2.52-21.006,1.54-26.712,15.932c-7.733,19.84-9.801,32.89-8.246,55.2C2.105,196.414,7.711,200.937,14.017,202.794z"/><path d="M35.654,132.417c-0.119-0.752-0.192-1.346-0.233-1.727c-0.022-0.19-0.035-0.329-0.041-0.406    c-0.002-0.02-0.003-0.035-0.004-0.047h0c-0.298-4.407-4.113-7.741-8.52-7.443c-4.408,0.297-7.742,4.113-7.443,8.521l-0.002-0.002    c0.067,0.536,0.571,9.09,4.873,18.497c2.176,4.69,5.377,9.688,10.349,13.672c0.918,0.744,1.902,1.442,2.945,2.086    c4.52,2.791,10.167,4.561,16.509,4.562c0.062,0,0.123-0.001,0.185-0.001c4.445,0,9.205-0.793,14.307-2.421    c1.771-0.565,3.203-1.694,4.173-3.121c1.166-1.714,1.659-3.859,1.248-6c-0.06-0.312-0.133-0.624-0.231-0.934    c-1.344-4.209-5.846-6.532-10.055-5.188c-3.79,1.209-6.907,1.664-9.441,1.662c-4.496-0.043-7.229-1.266-9.655-3.149    c-1.152-0.896-2.192-2.05-3.135-3.336c-1.998-2.725-3.519-6.1-4.461-9.278C36.319,136.055,35.893,133.92,35.654,132.417z"/><path d="M22.029,85.586c0.25,2.076,0.639,3.6,1.071,4.181c0.386,0.52,1.016,0.797,1.833,0.893    c1.756,0.206,4.414-0.469,7.607-1.634c0.938-0.342,1.923-0.726,2.943-1.141c9.613-3.915,22.422-10.613,30.44-11.572    c0.21-0.025,0.427-0.058,0.63-0.075c5.305-0.446-1.198-12.864-10.982-17.861c-7.637-3.898-22.437-5.101-29.424,3.963    c-3.906,5.067-4.722,14.628-4.313,21.079C21.884,84.188,21.949,84.918,22.029,85.586z"/><path d="M92.148,156.089h22.5c1.104,0,2-0.896,2-2v-9.5c0-1.105-0.896-2-2-2h-22.5c-1.104,0-2,0.895-2,2v9.5    C90.148,155.193,91.044,156.089,92.148,156.089z"/></g></g><text x="0" y="312.838" fill="#000000" font-size="5px" font-weight="bold" font-family="'Helvetica Neue', Helvetica, Arial-Unicode, Arial, Sans-serif">Created by Gan Khoon Lay</text><text x="0" y="317.838" fill="#000000" font-size="5px" font-weight="bold" font-family="'Helvetica Neue', Helvetica, Arial-Unicode, Arial, Sans-serif">from the Noun Project</text></svg>